<?xml version="1.0" encoding="UTF-8" standalone="no"?>
<!-- Created with Inkscape (http://www.inkscape.org/) -->

<svg
   width="161.91734mm"
   height="47.798374mm"
   viewBox="0 0 161.91734 47.798374"
   version="1.1"
   id="svg5"
   inkscape:version="1.1.2 (b8e25be833, 2022-02-05)"
   sodipodi:docname="Royal Bank of Scotland 2023.svg"
   xmlns:inkscape="http://www.inkscape.org/namespaces/inkscape"
   xmlns:sodipodi="http://sodipodi.sourceforge.net/DTD/sodipodi-0.dtd"
   xmlns="http://www.w3.org/2000/svg"
   xmlns:svg="http://www.w3.org/2000/svg">
  <sodipodi:namedview
     id="namedview7"
     pagecolor="#ffffff"
     bordercolor="#666666"
     borderopacity="1.0"
     inkscape:pageshadow="2"
     inkscape:pageopacity="0.0"
     inkscape:pagecheckerboard="0"
     inkscape:document-units="mm"
     showgrid="false"
     inkscape:zoom="0.64052329"
     inkscape:cx="302.09674"
     inkscape:cy="201.39783"
     inkscape:window-width="1920"
     inkscape:window-height="1017"
     inkscape:window-x="-8"
     inkscape:window-y="-8"
     inkscape:window-maximized="1"
     inkscape:current-layer="layer1" />
  <defs
     id="defs2" />
  <g
     inkscape:label="Layer 1"
     inkscape:groupmode="layer"
     id="layer1"
     transform="translate(-25.201276,-95.150743)">
    <g
       id="RBS_Secondary_Horizontal_RGB_NEG"
       transform="matrix(0.54550567,0,0,0.54550567,25.201276,95.150743)"
       style="fill:none;fill-rule:evenodd;stroke:none;stroke-width:1">
      <g
         id="Royal-Bank-Brandmark">
        <path
           d="m 87.58623,43.81107 c 0,40.631088 -3.178679,43.81107 -43.793115,43.81107 C 3.1786787,87.62214 0,84.442158 0,43.81107 0,3.179982 3.1786787,0 43.793115,0 84.407551,0 87.58623,3.179982 87.58623,43.81107"
           id="Squircle"
           fill="#3c1053" />
        <path
           d="m 40.079998,34.082 c -4.528114,1.62592 -6.086248,6.029013 -6.086248,6.029013 -0.60915,1.625167 -2.227298,2.844983 -4.052497,2.844983 h -8.585862 c -2.365332,0 -4.324814,-1.967227 -4.324814,-4.335284 0,-2.372577 1.621899,-4.268228 4.324814,-4.268228 l 6.810175,0.01206 -9.852924,-9.899427 c -1.686414,-1.694482 -1.686414,-4.403847 0,-6.090795 1.690916,-1.692976 4.396832,-1.692976 6.083997,0 l 9.801161,9.801479 v -6.756835 c 0,-2.36881 1.893466,-4.33001 4.324814,-4.33001 2.369834,0 4.261799,1.9612 4.261799,4.33001 v 8.598992 c 0,1.829348 -1.082516,3.524585 -2.704415,4.064047 m -1.557384,36.434771 c -2.362331,0 -4.258797,-1.562631 -4.18903,-4.268228 l 0.01125,-6.86533 -9.880681,9.909974 c -1.687915,1.697497 -4.460598,1.697497 -6.082497,0 -1.687915,-1.688455 -1.687915,-4.466382 0,-6.089288 l 9.774905,-9.82559 h -6.732906 c -2.433599,0 -4.323314,-1.961953 -4.323314,-4.326243 0,-2.372577 1.889715,-4.336791 4.323314,-4.336791 h 8.582861 c 1.824449,0 3.447849,1.081184 4.058499,2.708611 1.555132,4.601248 5.943712,6.158605 5.943712,6.158605 1.693167,0.608778 2.843199,2.166135 2.843199,4.063293 v 8.602759 c 0,2.37107 -1.895716,4.268228 -4.329315,4.268228 m 27.64055,-17.203258 -6.822928,-0.0075 9.862676,9.89792 c 1.690166,1.689962 1.690166,4.400833 0,6.089288 -1.686415,1.697497 -4.393831,1.697497 -6.081746,0 l -9.799661,-9.818055 v 6.773411 c 0,2.576759 -1.961732,4.336038 -4.326314,4.336038 -2.367583,0 -4.327065,-1.964968 -4.327065,-4.336038 v -8.602759 c 0,-1.829348 1.148533,-3.521571 2.772683,-4.063293 4.526613,-1.557357 6.080996,-6.02374 6.080996,-6.02374 0.608399,-1.622152 2.231798,-2.843476 4.056247,-2.843476 h 8.585112 c 2.368333,0 4.325565,1.964214 4.325565,4.336791 0,2.36429 -1.756933,4.261447 -4.325565,4.261447 m 0.06827,-10.426833 h -8.585862 c -1.823699,0 -3.515365,-1.083444 -4.054748,-2.708611 -1.556633,-4.537959 -6.014979,-6.164632 -6.014979,-6.164632 -1.62265,-0.610285 -2.840199,-2.166136 -2.840199,-4.0648 v -8.598239 c 0,-2.368056 1.960232,-4.261447 4.328565,-4.261447 2.363831,0 4.257297,1.759279 4.257297,4.261447 l 0.0015,6.891701 9.864927,-9.936345 c 1.690165,-1.690716 4.394581,-1.690716 6.083996,0 1.690166,1.687702 1.690166,4.464876 0,6.159358 l -9.731394,9.751753 h 6.690896 c 2.364582,0 4.324064,1.964214 4.324064,4.335284 0,2.370317 -1.959482,4.334531 -4.324064,4.334531"
           id="Daisywheel"
           fill="#ffffff" />
      </g>
      <path
         d="m 115.00803,11.617891 c 0.5352,-0.08671 1.32305,-0.122974 2.10854,-0.122974 3.38909,0 5.04349,1.939994 5.04349,4.627292 0,2.610045 -1.98654,4.41051 -5.21113,4.41051 -0.82563,0 -1.56941,-0.03784 -1.9409,-0.07962 z m 0,12.817677 h 0.45571 l 7.52667,12.04357 h 6.65934 L 123.1557,26.71374 c -0.66428,-0.988522 -1.45056,-2.15914 -2.23605,-3.194959 3.8873,-0.664533 6.86712,-3.789334 6.86712,-7.933401 0,-5.7182917 -3.97309,-8.4820539 -10.13264,-8.4820539 -3.2301,0 -5.83292,0.040203 -8.02803,0.1655419 v 29.21027 h 5.38193 z m 25.29011,7.941205 c -3.01995,0 -4.59014,-2.149681 -4.59014,-6.38046 0,-4.222108 2.3179,-6.049376 4.67515,-6.049376 3.09945,0 4.54843,2.153622 4.54843,6.136089 0,4.182693 -2.0259,6.293747 -4.63344,6.293747 m 0.45414,-16.899468 c -6.24455,0 -10.50807,4.635174 -10.50807,11.060567 0,7.329566 3.80938,10.351889 9.63758,10.351889 6.1257,0 10.51043,-4.638327 10.51043,-11.10077 0,-7.084407 -3.76452,-10.311686 -9.63994,-10.311686 m 23.18811,22.16378 8.14688,-21.749058 h -5.66764 l -2.43753,7.001636 c -0.66192,1.901367 -1.5332,4.680895 -1.98576,6.542848 h -0.0441 c -0.45335,-1.861953 -1.03105,-3.892601 -1.61112,-5.674935 l -2.77124,-7.869549 h -5.9195 l 7.61247,20.587111 -0.66192,1.824115 c -1.11606,3.228068 -2.93338,4.056566 -4.67043,4.056566 -0.87049,0 -1.82047,-0.163965 -2.60439,-0.414643 l -0.62178,4.559498 c 0.78471,0.167119 2.02433,0.290881 2.89482,0.290881 4.75543,0 7.65339,-2.030648 10.34121,-9.15447 m 21.08389,-10.316101 v 0.542347 c 0,2.483129 -1.73232,4.964682 -4.29893,4.964682 -1.53319,0 -2.48003,-1.080753 -2.48003,-2.401147 0,-1.778393 1.44662,-3.105882 6.77896,-3.105882 m -5.99111,9.565171 c 2.9137,0 5.32526,-1.468593 6.40668,-3.616697 v 3.205996 h 5.04665 c -0.122,-1.694834 -0.16529,-3.647441 -0.16529,-5.299707 v -8.495455 c 0,-4.598913 -1.89997,-7.250738 -8.26808,-7.250738 -2.77755,0 -5.7125,0.58255 -7.77933,1.412625 l 0.86656,4.057354 c 1.8189,-0.791448 4.34379,-1.408683 6.20598,-1.408683 2.73032,0 3.67794,1.117014 3.67794,3.608026 v 0.742574 c -7.19532,0 -11.86968,2.276596 -11.86968,7.167966 0,3.355772 2.15576,5.876739 5.87857,5.876739 m 15.58989,-0.410938 h 5.29614 V 6.2362804 h -5.29614 z m 23.33946,-13.108163 c 0.58006,-0.03941 1.98261,-0.03941 2.35804,-0.03941 3.68187,0 5.91634,1.373998 5.91634,4.02661 0,2.443715 -1.78191,4.855109 -5.29771,4.855109 -0.99406,0 -2.31475,-0.08514 -2.97667,-0.126915 z m 0,-11.712487 c 0.86655,-0.04099 1.8614,-0.08356 3.01917,-0.08356 3.26709,0 4.50908,1.541905 4.50908,3.612756 0,2.486282 -1.65834,4.125936 -5.33786,4.125936 -0.86498,0 -1.52847,0 -2.19039,-0.04415 z M 231.984,27.19192 c 0,-3.109035 -2.0259,-5.762436 -5.00414,-6.387554 v -0.08356 c 2.68624,-1.075234 4.21944,-3.62458 4.21944,-6.400955 0,-4.4712088 -3.35131,-7.0512983 -9.34794,-7.0512983 -3.39381,0 -6.90725,0.085136 -9.26529,0.2041684 V 36.479611 c 3.51659,0 6.28469,0.0812 8.14924,0.0812 8.18308,0 11.24869,-5.058489 11.24869,-9.368886 z m 14.96048,0.675726 c 0,2.482341 -1.73705,4.964682 -4.30051,4.964682 -1.53084,0 -2.4824,-1.080752 -2.4824,-2.401935 0,-1.778393 1.44348,-3.105094 6.78291,-3.105094 z m -11.87284,3.146086 c 0,3.354983 2.15183,5.87595 5.87857,5.87595 2.9137,0 5.32762,-1.468593 6.40747,-3.619062 v 3.209149 h 5.04664 c -0.12514,-1.694834 -0.16292,-3.647441 -0.16292,-5.300495 v -8.495455 c 0,-4.598125 -1.9039,-7.249949 -8.27438,-7.249949 -2.77046,0 -5.70777,0.58255 -7.7809,1.411836 l 0.87049,4.057354 c 1.82205,-0.79066 4.34301,-1.407895 6.20284,-1.407895 2.73347,0 3.68503,1.116226 3.68503,3.608027 v 0.741785 c -7.19533,0 -11.87284,2.276596 -11.87284,7.168755 z m 26.77743,-4.47586 c 0,-3.608026 2.10697,-6.629561 4.75622,-6.629561 1.98575,0 2.56267,1.284132 2.56267,3.39834 V 36.47906 h 5.25207 V 22.019365 c 0,-3.604085 -1.48598,-6.54206 -6.12177,-6.54206 -3.14825,0 -5.44332,1.509585 -6.74119,3.688432 v -3.273789 h -5.00335 V 36.47906 h 5.29535 z m 21.98689,0.42694 6.36891,9.514721 h 6.61526 l -8.12957,-11.18433 7.5983,-9.40357 h -6.45706 l -5.99584,7.562902 V 6.2365957 h -5.29535 V 36.479533 h 5.29535 z M 118.1492,76.7901 c -3.01918,0 -4.59487,-2.15914 -4.59487,-6.378883 0,-4.229203 2.31789,-6.053317 4.67751,-6.053317 3.1026,0 4.55158,2.15441 4.55158,6.134512 0,4.180328 -2.02905,6.297688 -4.63422,6.297688 m 0.45255,-16.907351 c -6.24376,0 -10.50413,4.64227 -10.50413,11.064509 0,7.334296 3.80781,10.355831 9.63679,10.355831 6.1202,0 10.50571,-4.641481 10.50571,-11.101558 0,-7.083619 -3.76373,-10.318782 -9.63837,-10.318782 m 15.03753,-1.219571 v 1.694834 h -3.60238 v 4.105441 h 3.60238 v 16.487189 h 5.25128 V 64.463453 h 4.80108 v -4.105441 h -4.80108 v -1.738978 c 0,-2.731443 1.03184,-3.934381 3.35131,-3.934381 0.77998,0 1.73626,0.08277 2.56504,0.373652 l 0.3707,-4.3506 c -1.07827,-0.247524 -2.23368,-0.335025 -3.35052,-0.335025 -5.62434,0 -8.18781,2.737748 -8.18781,8.290498 m 24.7997,0.850965 c 0,-1.984927 1.44662,-3.352619 4.58936,-3.352619 1.65362,0 3.26788,0.289304 4.80108,0.784354 l 0.49349,-4.725041 c -1.57019,-0.329507 -3.51738,-0.53131 -5.0435,-0.53131 -6.74512,0 -10.55135,3.435389 -10.55135,8.405589 0,9.199402 11.74454,7.538465 11.74454,12.88074 0,2.613198 -2.14789,3.649017 -4.67279,3.649017 -2.23132,0 -4.30051,-0.460364 -6.07927,-1.205303 l -0.57691,5.175945 c 1.85982,0.501356 3.97151,0.749669 6.45154,0.749669 6.45313,0 10.79692,-3.854763 10.79692,-9.031496 0,-8.864377 -11.95311,-7.826981 -11.95311,-12.799545 m 24.51234,17.194526 c -3.51502,0 -4.79399,-2.445291 -4.79399,-5.965028 0,-3.816924 1.60954,-6.342621 4.75306,-6.342621 1.36477,0 2.72875,0.32793 3.84638,0.784353 l 0.82641,-4.55398 c -1.32226,-0.457999 -2.93731,-0.703947 -4.50672,-0.703947 -7.11425,0 -10.46713,4.926843 -10.46713,11.349871 0,7.004001 3.56066,9.986121 9.26529,9.986121 1.98812,0 4.18009,-0.335026 5.79356,-0.951472 l -0.7052,-4.438101 c -1.1987,0.542347 -2.60361,0.834804 -4.01166,0.834804 m 15.93966,0.08143 c -3.02153,0 -4.59251,-2.15914 -4.59251,-6.378883 0,-4.229203 2.31318,-6.053317 4.67594,-6.053317 3.10102,0 4.54843,2.15441 4.54843,6.134512 0,4.180328 -2.02511,6.297688 -4.63186,6.297688 m 0.45414,-16.907351 c -6.24377,0 -10.50807,4.64227 -10.50807,11.064509 0,7.334296 3.80781,10.355831 9.63915,10.355831 6.12413,0 10.50885,-4.641481 10.50885,-11.101558 0,-7.083619 -3.76766,-10.318782 -9.63993,-10.318782 M 222.00204,76.8292 c -1.82127,0 -2.43675,-0.746516 -2.43675,-3.399129 v -9.02913 h 5.00335 v -4.103864 h -5.00335 V 51.67313 l -5.25521,1.40553 v 7.218417 h -3.55831 v 4.103864 h 3.55831 v 10.437025 c 0,4.807811 1.40726,6.464807 5.95491,6.464807 1.44741,0 3.14589,-0.245947 4.46973,-0.580973 l -0.37386,-4.182693 c -0.70285,0.205745 -1.48676,0.290093 -2.35882,0.290093 m 6.09792,4.121679 h 5.29141 V 50.704 h -5.29141 z m 20.22364,-8.627968 c 0,2.489436 -1.73469,4.974142 -4.29658,4.974142 -1.53162,0 -2.48396,-1.079965 -2.48396,-2.406665 0,-1.778394 1.44583,-3.105882 6.78054,-3.105882 z m 5.29377,-5.179886 c 0,-4.59576 -1.89996,-7.246796 -8.2728,-7.246796 -2.76731,0 -5.7062,0.580185 -7.77303,1.409472 l 0.86734,4.056566 c 1.82363,-0.784354 4.34222,-1.404742 6.20363,-1.404742 2.73346,0 3.68109,1.114649 3.68109,3.602508 v 0.745727 c -7.1969,0 -11.8689,2.281326 -11.8689,7.165601 0,3.358925 2.15183,5.883834 5.8707,5.883834 2.92236,0 5.34021,-1.47963 6.41298,-3.627733 v 3.215455 h 5.04821 c -0.12357,-1.701929 -0.16922,-3.645864 -0.16922,-5.301284 z m 15.28097,-7.198631 c -3.15061,0 -5.44883,1.515103 -6.74433,3.692374 v -3.278519 h -5.00257 v 20.59263 h 5.29535 v -9.941977 c 0,-3.604873 2.10854,-6.631137 4.75386,-6.631137 1.98576,0 2.56582,1.283344 2.56582,3.395187 v 13.177927 h 5.25522 V 66.491184 c 0,-3.604873 -1.48913,-6.54679 -6.12335,-6.54679 m 22.66865,10.299232 c 0,3.518948 -1.65676,6.752534 -4.42722,6.752534 -2.39897,0 -3.51424,-1.992021 -3.51424,-5.842842 0,-5.098692 2.14947,-7.000848 5.16943,-7.000848 0.90827,0 1.82283,0.123763 2.77203,0.331872 z m 0,-19.560752 v 9.450868 c -0.90906,-0.128492 -1.73547,-0.164753 -2.60439,-0.164753 -6.82934,0 -10.88192,4.800716 -10.88192,11.765302 0,5.881469 2.48397,9.651096 7.4889,9.651096 2.99949,0 5.19775,-1.477265 6.32561,-3.594625 v 3.139779 h 4.92544 V 50.682874 Z"
         id="Royal-Bank-Wordmark"
         fill="#ffffff"
         style="fill:#3c1053;fill-opacity:1" />
    </g>
  </g>
</svg>
