<?xml version="1.0" encoding="utf-8"?>
<!-- Generator: Adobe Illustrator 26.3.1, SVG Export Plug-In . SVG Version: 6.00 Build 0)  -->
<svg version="1.1" id="Original" xmlns="http://www.w3.org/2000/svg" xmlns:xlink="http://www.w3.org/1999/xlink" x="0px" y="0px"
	 viewBox="0 0 1000 215.8" style="enable-background:new 0 0 1000 215.8;" xml:space="preserve">
  <style type="text/css">
    .st0{fill:#0024FF;}
  </style>
  <path class="st0" d="M676.8,0h-15.5c-0.6,0-1,0.5-1,1v32.6c-6.6-6.6-15-9.9-23.9-9.9c-19,0-34.5,15.7-34.5,38.6
	c0,22.5,16.3,38.5,34.9,38.5c9.2,0,17-3.3,23.4-9.7v6.7c0,0.6,0.5,1,1,1h15.5c0.6,0,1-0.5,1-1V1C677.8,0.5,677.3,0,676.8,0L676.8,0z
	 M639.6,83.9c-11.8,0-20.2-9.2-20.2-21.8c0-12,7.8-21.7,20.2-21.7c11.9,0,20.7,8.7,20.7,21.5C660.3,75.4,651.2,83.9,639.6,83.9
	L639.6,83.9z M594.5,62.1c0,21.2-16.4,38.6-38.8,38.6c-21.2,0-38.1-17-38.1-38.5c0-22.2,17.9-38.6,37.9-38.6
	C577,23.7,594.5,40.5,594.5,62.1z M535.1,62.1c0,12.7,8.3,21.8,20.8,21.8c11.9,0,21.2-8.5,21.2-21.6c0-12.7-8.6-21.8-21.2-21.8
	C543.8,40.5,535.1,49.7,535.1,62.1L535.1,62.1z M511.8,140h-15.5c-0.6,0-1,0.5-1,1v7c-6.6-6.6-15-9.9-23.9-9.9
	c-19,0-34.5,15.7-34.5,38.6c0,22.5,16.3,38.5,34.9,38.5c9.2,0,17-3.3,23.4-9.7v6.7c0,0.6,0.5,1,1,1h15.5c0.6,0,1-0.5,1-1V141
	C512.8,140.4,512.3,140,511.8,140L511.8,140z M474.6,198.3c-11.8,0-20.2-9.2-20.2-21.8c0-12,7.8-21.7,20.2-21.7
	c11.9,0,20.7,8.7,20.7,21.5C495.2,189.8,486.2,198.3,474.6,198.3L474.6,198.3z M334.7,114.2h16.9c0.4,0,0.8,0.3,1,0.7l22.7,68.4
	l22.9-68.4c0.1-0.4,0.5-0.7,1-0.7h16.6c0.5,0,0.9,0.4,1,0.8l16.3,97c0.1,0.6-0.4,1.2-1,1.2H416c-0.5,0-0.9-0.4-1-0.8l-10.5-61.8
	l-20.9,61.9c-0.1,0.4-0.5,0.7-1,0.7h-15.1c-0.4,0-0.8-0.3-1-0.7L346,150.6l-10.7,61.8c-0.1,0.5-0.5,0.8-1,0.8H318
	c-0.6,0-1.1-0.6-1-1.2l16.8-97C333.8,114.5,334.2,114.2,334.7,114.2L334.7,114.2z M601.1,114.2h15.5c0.7,0,1.3,0.6,1.3,1.3v54.6
	l26.6-29.5c0.4-0.4,0.9-0.7,1.5-0.7h19.8c0.9,0,1.3,1,0.7,1.7l-29.1,32.6c-0.5,0.5-0.5,1.3,0,1.8l32.9,35.5c0.6,0.6,0.1,1.7-0.7,1.7
	h-19.6c-0.6,0-1.1-0.2-1.5-0.6l-30.6-33.1v32.4c0,0.7-0.6,1.3-1.3,1.3h-15.5c-0.7,0-1.3-0.6-1.3-1.3v-96.3
	C599.7,114.8,600.3,114.2,601.1,114.2L601.1,114.2z M817.6,163.2v49.1c0,0.6-0.5,1-1,1h-15.4c-0.6,0-1-0.5-1-1v-33.6
	c0-14.5-1.3-23.7-13.2-23.7c-5.4,0-10.1,2.5-13.2,7c-4,5.9-3.8,12.5-3.8,20.1v30.2c0,0.6-0.5,1-1,1h-15.5c-0.6,0-1-0.5-1-1V141
	c0-0.6,0.5-1,1-1h14.3c0.6,0,1,0.5,1,1v7c2-2,4.2-3.7,6.5-5.1c4-2.2,8.2-3.8,12.4-4.4c0.2,0,0.5-0.1,0.8-0.1
	c0.4-0.1,0.9-0.1,1.3-0.2c0.9-0.1,1.9-0.1,2.9-0.1c0,0,0,0,0.1,0C806.2,138.1,817.6,147.5,817.6,163.2L817.6,163.2z M897.3,140h14.9
	c0.7,0,1.3,0.6,1.3,1.3v70.5c0,0.7-0.6,1.3-1.3,1.3h-14.9c-0.7,0-1.3-0.6-1.3-1.3v-70.5C896,140.6,896.6,140,897.3,140L897.3,140z
	 M912.7,129.4h-16c-0.4,0-0.7-0.3-0.7-0.7v-13.9c0-0.4,0.3-0.7,0.7-0.7h16c0.4,0,0.7,0.3,0.7,0.7v13.9
	C913.4,129.1,913.1,129.4,912.7,129.4z M744.7,175.1c-1.3-20.5-18.1-37-38.7-37c-23.7-0.1-38.2,18.4-38.2,38.5l0.2,0.1h-0.2
	c0,21.5,15,38.5,38.3,38.5c14.8,0,24.9-4.6,32.7-14.8c0.5-0.7,0.3-1.6-0.5-2l-13.1-6.2c-0.5-0.2-1.1-0.1-1.5,0.2
	c-4.9,4.5-10,6.5-17.5,6.5c0,0-17.6,1-20.5-16.9l0,0h57.7c0.7,0,1.3-0.6,1.3-1.3C744.7,179.1,744.8,178.1,744.7,175.1L744.7,175.1z
	 M687.1,167.4c3.5-9.2,10.3-13.8,19.1-13.8c9.5,0,17.1,5.2,19.5,13.8H687.1z M999.9,175.1c-1.3-20.5-18.1-37-38.7-37
	c-23.7-0.1-38.2,18.4-38.2,38.5l0.2,0.1H923c0,21.5,15,38.5,38.3,38.5c14.8,0,24.9-4.6,32.7-14.8c0.5-0.7,0.3-1.6-0.5-2l-13.1-6.2
	c-0.5-0.2-1.1-0.1-1.5,0.2c-4.9,4.5-10,6.5-17.5,6.5c0,0-17.6,1-20.5-16.9l0,0h57.7c0.7,0,1.3-0.6,1.3-1.3
	C1000,179.1,1000.1,178.1,999.9,175.1L999.9,175.1z M942.3,167.4c3.5-9.2,10.3-13.8,19.1-13.8c9.5,0,17.1,5.2,19.4,13.8H942.3z
	 M510.2,62.1c0,21.2-16.4,38.6-38.8,38.6c-21.2,0-38.1-17-38.1-38.5c0-22.2,17.9-38.6,37.9-38.6C492.7,23.7,510.2,40.5,510.2,62.1z
	 M450.8,62.1c0,12.7,8.3,21.8,20.8,21.8c11.9,0,21.2-8.5,21.2-21.6c0-12.7-8.6-21.8-21.2-21.8C459.5,40.5,450.8,49.7,450.8,62.1
	L450.8,62.1z M415.6,99h-16.4c-0.6,0-1.1-0.4-1.3-0.9l-22.6-68.2l-22.9,68.2c-0.2,0.5-0.7,0.9-1.3,0.9h-16.1c-0.7,0-1.2-0.5-1.3-1.1
	L317.5,1.6C317.4,0.7,318,0,318.9,0h15.5c0.7,0,1.2,0.5,1.3,1.1l10.4,61.5l20.8-61.7c0.2-0.5,0.7-0.9,1.3-0.9h14.6
	c0.6,0,1.1,0.4,1.3,0.9l20.5,61.7l10.7-61.5c0.1-0.6,0.7-1.1,1.3-1.1h15.6c0.8,0,1.5,0.8,1.3,1.6l-16.6,96.3
	C416.8,98.5,416.2,99,415.6,99L415.6,99z M592,200.3c-7.7,10.2-17.8,14.8-32.7,14.8c-23.3,0-38.3-17-38.3-38.5
	c0-21.5,15-38.5,38.3-38.5c14.8,0,24.9,4.6,32.7,14.8c0.5,0.7,0.3,1.6-0.5,2l-13.1,6.2c-0.5,0.2-1.1,0.1-1.5-0.2
	c-4.9-4.5-10-6.5-17.5-6.5c0,0-21-1.2-21,22.3s21,22.3,21,22.3c7.5,0,12.6-2,17.5-6.5c0.4-0.4,1-0.5,1.5-0.2l13.1,6.2
	C592.2,198.7,592.5,199.6,592,200.3L592,200.3z M885.7,198.6v13.6c0,0.6-0.4,1-1,1h-56.9c-0.8,0-1.3-0.8-0.9-1.5l32.2-56.1h-26.9
	c-0.6,0-1-0.5-1-1V141c0-0.6,0.5-1,1-1h53.4c0.8,0,1.3,0.8,0.9,1.5l-32.2,56.1h30.4C885.2,197.6,885.7,198.1,885.7,198.6
	L885.7,198.6z M170.5,39.9c1.9,1.9,2.9,4.4,2.9,7.1s-1.1,5.2-2.9,7.1l-159,159c-1.9,1.9-4.8,2.5-7.3,1.5S0,211.1,0,208.4V7.7
	c0-3.1,1.9-5.9,4.8-7.1s6.2-0.5,8.4,1.7l47.6,47.6c3.2,3.2,8.4,3.2,11.7,0l46.9-46.9c3.9-3.9,10.3-3.9,14.2,0L170.5,39.9L170.5,39.9
	z M82.7,175.2c-1.9-1.9-2.9-4.4-2.9-7.1s1.1-5.2,2.9-7.1l159-159c1.9-1.9,4.8-2.5,7.3-1.5s4.2,3.5,4.2,6.2v200.7
	c0,3.1-1.9,5.9-4.8,7.1s-6.2,0.5-8.4-1.7l-47.6-47.6c-3.2-3.2-8.4-3.2-11.7,0l-46.9,46.9c-3.9,3.9-10.3,3.9-14.2,0L82.7,175.2
	L82.7,175.2z"/>
</svg>
